<!--?xml version="1.0" encoding="utf-8"?-->
<!-- Generator: Adobe Illustrator 18.1.1, SVG Export Plug-In . SVG Version: 6.00 Build 0)  -->

<svg version="1.1" id="_x31_0" xmlns="http://www.w3.org/2000/svg" xmlns:xlink="http://www.w3.org/1999/xlink" x="0px" y="0px" viewBox="0 0 512 512" style="width: 256px; height: 256px; opacity: 1;" xml:space="preserve">
<style type="text/css">
	.st0{fill:#374149;}
</style>
<g>
	<path class="st0" d="M212.445,128.373v0.062c0.062,1.066,0.187,1.882,0.5,2.511l1.508-0.187c0,0,40.086-8.211,82.773-2.722
		c1.367,0.175,2.711-0.141,3.618-1.18c8.418-9.683,17.535-18.187,27.218-25.347c2.25-1.664,2.09-5.118-0.41-6.371
		c-11.91-5.977-25.347-10.485-39.824-13.153c-1.254-5.648-2.07-11.234-2.32-16.129c-0.691-15.945,8.347-32.957,13.179-40.738
		c1.633-2.637,1.133-6.027-1.129-8.16L279.984,5.346c-1.032-0.665-2.161-1-3.286-1.332c-0.008-0.004-0.012-0.008-0.019-0.008
		c-1.039-0.309-2.059-0.422-3.118-0.454c-0.125-0.004-0.238-0.054-0.363-0.054c-0.125,0-0.238,0.039-0.363,0.043
		c-2.562,0.078-4.973,0.918-7.043,2.531c-0.301,0.234-0.566,0.504-0.847,0.77c-0.504,0.476-1.102,0.812-1.531,1.39
		c-7.848,10.359-20.274,28.121-27.118,44.754c-3.515,8.539-7.594,18.832-11.363,29.126c-14.558,2.781-28.125,7.41-40.082,13.519
		c-2.477,1.266-2.626,4.699-0.391,6.355C194.425,109.388,203.804,118.28,212.445,128.373z" style="fill: rgb(75, 75, 75);"></path>
	<path class="st0" d="M132.726,184.99c8.176-13.078,19.493-26.164,35.043-36.882c0.516-0.344,0.981-0.766,1.504-1.102
		c-0.008-0.008-0.012-0.012-0.019-0.016c0.046-0.031,0.086-0.07,0.129-0.102c-7.657-7.406-15.817-13.43-24.352-17.949
		c-11.926-6.402-24.542-9.856-37.539-9.856c-1.503,0-3.074,0-4.644,0.126C40.015,123.224-5.806,207.4,0.597,307.139
		c6.215,97.293,58.25,173.558,120.454,173.558c1.633,0,3.266-0.062,4.894-0.125c4.582-0.27,9-1.074,13.34-2.149
		c0.679-0.149,1.343-0.246,2.031-0.406c-0.012-0.015-0.02-0.031-0.028-0.046c0.055-0.016,0.11-0.02,0.165-0.035
		c-22.598-36.973-36.219-84.993-36.786-138.282c-0.5-48.961,1.508-99.805,20.023-139.722
		C126.953,195.033,129.652,190.013,132.726,184.99z" style="fill: rgb(75, 75, 75);"></path>
	<path class="st0" d="M409.101,119.209c-1.508-0.126-3.078-0.126-4.649-0.126c-12.742,0-25.168,3.329-36.906,9.477v0.062
		c-8.176,4.262-16.016,10.008-23.41,16.93c-0.637,0.578-1.289,1.114-1.922,1.707c0.011,0.008,0.019,0.016,0.031,0.023
		c-0.039,0.039-0.082,0.07-0.122,0.11c1.786,1.23,3.485,2.504,5.164,3.793c0.516,0.398,1.031,0.79,1.543,1.195
		c3.348,2.661,6.465,5.434,9.375,8.282c0.39,0.383,0.793,0.754,1.176,1.145c2.93,2.941,5.625,5.965,8.133,9.035
		c0.32,0.394,0.652,0.777,0.969,1.175c2.437,3.055,4.66,6.149,6.718,9.25c0.359,0.543,0.718,1.082,1.07,1.629
		c1,1.558,1.973,3.114,2.886,4.668c2.07,3.515,3.954,7.031,5.586,10.48c18.953,39.36,22.094,89.699,22.598,138.282
		c0.546,47.886-9.52,91.734-27.223,127.262c-2.515,5.012-5.175,9.883-8.015,14.57c0.012,0.004,0.027,0.004,0.039,0.008
		c-0.027,0.046-0.051,0.098-0.078,0.144c4.519,1.196,9.164,1.946,13.934,2.262c1.633,0.062,3.266,0.125,4.898,0.125
		c62.266,0,114.301-76.266,120.516-173.558C517.753,207.4,471.995,123.224,409.101,119.209z" style="fill: rgb(75, 75, 75);"></path>
	<path class="st0" d="M315.323,182.353c-5.839-3.89-12.367-6.965-19.71-9.289c-6.906-2.258-14.562-3.828-22.973-4.707
		c-5.211-0.566-10.672-0.879-16.512-0.879h-1.945c-5.207,0.063-10.106,0.313-14.813,0.879c-8.473,0.754-16.133,2.321-23.16,4.457
		c-7.406,2.258-14.062,5.274-19.961,8.914c-19.586,11.926-31.321,30.816-38.29,54.481c-8.414,28.687-9.793,64.339-9.351,102.941
		c0.5,45.195,11.988,86.122,30.442,116.438c3.953,6.59,8.222,12.618,12.867,18.078c4.832,5.902,10.105,11.172,15.629,15.629
		c14.878,12.305,31.762,19.207,49.59,19.207h0.75c17.137-0.188,33.27-6.778,47.52-18.329c5.523-4.394,10.797-9.601,15.754-15.503
		c4.582-5.462,8.848-11.485,12.742-18.078c18.77-30.946,30.004-73.25,29.5-119.762c-0.375-37.66-2.446-72.438-10.922-100.558
		C345.515,212.986,334.026,194.216,315.323,182.353z" style="fill: rgb(75, 75, 75);"></path>
</g>
</svg>
